<svg width="329" height="214" viewBox="0 0 329 214" fill="none" xmlns="http://www.w3.org/2000/svg">
<path d="M322.154 192.007L74.3886 178.309C69.8794 178.071 65.6856 174.63 65.0202 170.621L51.6676 27.0465C50.9892 23.007 54.0032 19.7106 58.4022 19.6847L289.743 19.6328C294.161 19.6544 298.422 23.2532 299.258 27.6686L328.867 184.587C329.69 188.969 326.685 192.29 322.156 192.007H322.154Z" fill="url(#paint0_linear_4_1059)"/>
<path d="M248.881 213.982L6.90632 198.539C2.49868 198.271 -0.240967 194.391 0.787482 189.872L48.1372 27.9926C49.1678 23.4369 53.5754 19.7193 57.9831 19.6933L289.345 19.635C293.753 19.6609 296.493 23.7177 295.464 28.6947L258.727 205.62C257.697 210.562 253.289 214.306 248.881 213.986V213.982Z" fill="url(#paint1_linear_4_1059)"/>
<path d="M236.544 192.177L19.8352 178.752C15.7062 178.519 13.1394 175.147 14.1052 171.217L48.5129 30.4854C49.4765 26.5259 53.6076 23.2943 57.7365 23.2705L274.445 23.2187C278.574 23.2403 281.141 26.7678 280.175 31.0946L245.766 184.904C244.802 189.201 240.671 192.456 236.542 192.177H236.544Z" fill="url(#paint2_linear_4_1059)"/>
<path d="M236.544 192.177L19.8352 178.752C15.7062 178.519 13.1394 175.147 14.1052 171.217L48.5129 30.4854C49.4765 26.5259 53.6076 23.2943 57.7365 23.2705L274.445 23.2187C278.574 23.2403 281.141 26.7678 280.175 31.0946L245.766 184.904C244.802 189.201 240.671 192.456 236.542 192.177H236.544Z" fill="url(#paint3_linear_4_1059)"/>
<path d="M226.882 174.179L6.83482 163.944C1.60183 163.579 -1.56994 157.999 0.795923 153.318C0.981735 152.949 1.11785 152.681 1.18699 152.558C12.5518 132.032 21.998 110.083 29.1474 87.7706C36.1564 65.8925 42.6815 43.1115 42.8651 19.9331C42.8975 15.8526 46.2616 12.5864 50.3408 12.6642L263.279 15.5717C267.536 15.6538 270.835 19.3239 270.451 23.5643C268.441 45.6821 264.997 68.5387 259.889 90.1619C255.017 110.791 247.976 130.831 241.28 150.916C239.182 157.213 236.73 163.473 234.18 169.647C232.973 172.57 230.036 174.399 226.88 174.179H226.882Z" fill="black"/>
<path d="M226.882 174.179L6.83482 163.944C1.60183 163.579 -1.56994 157.999 0.795923 153.318C0.981735 152.949 1.11785 152.681 1.18699 152.558C12.5518 132.032 21.998 110.083 29.1474 87.7706C36.1564 65.8925 42.6815 43.1115 42.8651 19.9331C42.8975 15.8526 46.2616 12.5864 50.3408 12.6642L263.279 15.5717C267.536 15.6538 270.835 19.3239 270.451 23.5643C268.441 45.6821 264.997 68.5387 259.889 90.1619C255.017 110.791 247.976 130.831 241.28 150.916C239.182 157.213 236.73 163.473 234.18 169.647C232.973 172.57 230.036 174.399 226.88 174.179H226.882Z" fill="url(#paint4_radial_4_1059)"/>
<path d="M226.882 174.179L6.83482 163.944C1.60183 163.579 -1.56994 157.999 0.795923 153.318C0.981735 152.949 1.11785 152.681 1.18699 152.558C12.5518 132.032 21.998 110.083 29.1474 87.7706C36.1564 65.8925 42.6815 43.1115 42.8651 19.9331C42.8975 15.8526 46.2616 12.5864 50.3408 12.6642L263.279 15.5717C267.536 15.6538 270.835 19.3239 270.451 23.5643C268.441 45.6821 264.997 68.5387 259.889 90.1619C255.017 110.791 247.976 130.831 241.28 150.916C239.182 157.213 236.73 163.473 234.18 169.647C232.973 172.57 230.036 174.399 226.88 174.179H226.882Z" fill="url(#paint5_linear_4_1059)"/>
<path d="M90.5866 69.5238C84.7811 69.338 78.9734 69.1501 73.1678 68.9643C70.3958 68.8757 68.5506 66.8192 69.0022 64.3739C69.9507 59.2544 70.7587 54.1456 71.4264 49.0498C71.7461 46.6153 74.2243 44.7187 77.0051 44.8073C82.8279 44.993 88.6507 45.1788 94.4714 45.3624C97.2521 45.451 99.2766 47.4923 98.9482 49.9268C98.2633 55.0248 97.4379 60.1357 96.4743 65.2553C96.0141 67.7006 93.3587 69.6123 90.5866 69.5216V69.5238ZM140.695 66.6767C141.685 61.5549 142.534 56.4419 143.245 51.3417C143.584 48.9072 141.57 46.8637 138.792 46.7752C132.971 46.5894 127.148 46.4036 121.328 46.2178C118.547 46.1293 116.06 48.0281 115.727 50.4626C115.032 55.5605 114.198 60.6736 113.225 65.7932C112.761 68.2385 114.595 70.2949 117.37 70.3835C123.175 70.5693 128.981 70.7572 134.786 70.943C137.558 71.0315 140.224 69.1198 140.695 66.6745V66.6767ZM184.908 68.0959C185.923 62.972 186.798 57.8589 187.535 52.7545C187.887 50.3178 185.885 48.2743 183.106 48.1858C177.285 48 171.465 47.8142 165.644 47.6284C162.863 47.5399 160.368 49.4386 160.022 51.8753C159.303 56.9776 158.443 62.0907 157.442 67.2124C156.965 69.6577 158.791 71.7163 161.563 71.8049C167.368 71.9907 173.172 72.1786 178.977 72.3644C181.747 72.4529 184.424 70.5412 184.908 68.0937V68.0959ZM229.114 69.5173C230.155 64.3934 231.056 59.276 231.819 54.1715C232.184 51.7349 230.19 49.6892 227.411 49.6007C221.593 49.4149 215.772 49.2291 209.952 49.0433C207.171 48.9548 204.667 50.8557 204.308 53.2924C203.563 58.3968 202.677 63.512 201.65 68.6359C201.162 71.0812 202.975 73.1399 205.747 73.2284C211.55 73.4142 217.354 73.6021 223.157 73.7879C225.927 73.8765 228.613 71.9647 229.11 69.5173H229.114ZM80.9935 104.611C75.2074 104.425 69.4213 104.237 63.6352 104.052C60.8718 103.963 59.2513 101.907 59.9687 99.4613C61.4746 94.3418 62.8401 89.233 64.0652 84.1372C64.6507 81.7027 67.3342 79.8061 70.1062 79.8947C75.9096 80.0804 81.7109 80.2662 87.5121 80.4498C90.282 80.5384 92.0839 82.5797 91.4898 85.0142C90.2496 90.1122 88.8668 95.2231 87.3436 100.343C86.6176 102.788 83.7526 104.7 80.9892 104.609L80.9935 104.611ZM131.413 101.764C132.963 96.6423 134.369 91.5292 135.637 86.4291C136.242 83.9946 134.451 81.9511 131.681 81.8626C125.88 81.6768 120.079 81.491 114.278 81.3052C111.506 81.2167 108.814 83.1154 108.215 85.5499C106.964 90.6479 105.573 95.761 104.041 100.881C103.31 103.326 104.92 105.382 107.684 105.471C113.47 105.657 119.254 105.845 125.04 106.03C127.801 106.119 130.677 104.207 131.416 101.762L131.413 101.764ZM175.47 103.183C177.046 98.0594 178.478 92.9463 179.772 87.8419C180.39 85.4052 178.61 83.3617 175.84 83.2731C170.041 83.0874 164.24 82.9016 158.438 82.7158C155.668 82.6273 152.963 84.526 152.354 86.9627C151.077 92.065 149.66 97.1781 148.102 102.3C147.359 104.745 148.958 106.804 151.721 106.892C157.505 107.078 163.289 107.266 169.073 107.452C171.834 107.54 174.719 105.629 175.47 103.181V103.183ZM219.523 104.605C221.124 99.4808 222.582 94.3634 223.903 89.2589C224.534 86.8223 222.764 84.7766 219.994 84.688C214.195 84.5023 208.396 84.3165 202.597 84.1307C199.827 84.0421 197.113 85.9431 196.491 88.3797C195.188 93.4842 193.745 98.5994 192.159 103.723C191.403 106.169 192.993 108.227 195.754 108.316C201.538 108.502 207.32 108.69 213.104 108.875C215.865 108.964 218.758 107.052 219.523 104.605ZM68.1984 139.135C62.4318 138.949 56.6651 138.761 50.8984 138.575C48.1437 138.487 46.7393 136.43 47.7115 133.985C49.7533 128.865 51.6525 123.757 53.4112 118.661C54.2517 116.226 57.1339 114.33 59.8952 114.418C65.6791 114.604 71.4609 114.79 77.2427 114.973C80.004 115.062 81.592 117.103 80.7451 119.538C78.9712 124.636 77.0547 129.747 74.9978 134.866C74.0148 137.312 70.951 139.223 68.1984 139.133V139.135ZM118.917 136.288C120.999 131.166 122.942 126.053 124.744 120.953C125.604 118.518 124.026 116.475 121.265 116.386C115.483 116.2 109.702 116.015 103.92 115.829C101.158 115.74 98.2654 117.639 97.4141 120.074C95.6295 125.171 93.7044 130.285 91.6367 135.404C90.6515 137.849 92.045 139.906 94.7998 139.994C100.566 140.18 106.331 140.368 112.098 140.554C114.85 140.643 117.925 138.731 118.919 136.285L118.917 136.288ZM162.824 137.707C164.933 132.583 166.904 127.47 168.729 122.365C169.602 119.929 168.036 117.885 165.275 117.797C159.493 117.611 153.713 117.425 147.931 117.239C145.17 117.151 142.268 119.05 141.404 121.486C139.594 126.589 137.643 131.702 135.549 136.823C134.551 139.269 135.936 141.327 138.688 141.416C144.453 141.602 150.217 141.79 155.982 141.975C158.734 142.064 161.818 140.152 162.824 137.705V137.707ZM206.728 139.128C208.865 134.004 210.859 128.887 212.711 123.783C213.596 121.346 212.039 119.3 209.28 119.212C203.5 119.026 197.72 118.84 191.941 118.654C189.179 118.566 186.267 120.467 185.39 122.903C183.553 128.008 181.574 133.123 179.455 138.247C178.443 140.692 179.818 142.751 182.57 142.839C188.335 143.025 194.097 143.213 199.862 143.399C202.612 143.487 205.706 141.576 206.726 139.128H206.728Z" fill="url(#paint6_linear_4_1059)"/>
<path d="M74.4034 15.9735C75.017 15.0857 75.542 14.1266 76.134 13.161C76.3544 12.8002 76.577 12.4373 76.7152 12.0377C76.7974 11.7979 76.8514 11.543 76.994 11.3313C77.3721 10.7654 78.1866 10.7459 78.8629 10.8194C81.5615 11.1088 82.3371 12.621 82.2291 15.1937C82.0433 19.6544 80.2954 23.9423 77.1106 27.0529C74.5676 29.535 71.4239 30.8656 67.8611 30.8267C67.1891 30.8203 66.4999 30.7641 65.8884 30.4897C64.6591 29.9389 63.9396 28.5478 63.9396 27.202C63.9396 22.3503 69.2352 20.5876 72.3681 18.1877C73.2043 17.5461 73.8438 16.7922 74.4099 15.9757L74.4034 15.9735Z" fill="url(#paint7_radial_4_1059)"/>
<path d="M81.8683 11.4631C81.7171 10.774 81.5464 10.0892 81.3454 9.41312C80.9781 8.16455 80.5222 6.93758 79.9432 5.76678C78.9774 3.83344 77.6205 1.98003 75.7041 0.906433C74.492 0.230305 73.1114 -0.065636 71.7286 0.0121295C66.4199 0.316711 63.0948 5.63717 62.0771 12.8218C61.7854 14.8675 61.6796 17.0687 61.7725 19.3477C61.8524 21.3112 62.0987 23.2684 62.5373 25.1844C63.0667 27.5152 63.8575 31.7534 67.1848 31.1313C69.1488 30.7641 69.1855 28.2799 68.4877 26.8045C67.887 25.53 67.1308 24.5407 66.8218 23.1301C66.5388 21.8232 66.4913 20.4709 66.5409 19.1338C66.6209 17.0579 66.8456 14.8783 67.2431 12.891C68.0361 8.88604 69.5183 5.65877 71.8841 5.58749C73.4095 5.54212 74.3991 6.68053 74.9695 7.97662C75.3411 8.8126 75.5744 9.70906 75.7538 10.6034C75.905 11.3465 75.9115 12.1155 76.0844 12.8542C76.0973 12.9083 76.1103 12.9623 76.1254 13.0119L82.2766 13.0962C82.2766 12.5734 81.959 11.8735 81.8683 11.4588V11.4631Z" fill="url(#paint8_radial_4_1059)"/>
<path d="M81.8683 11.4631C81.7171 10.774 81.5464 10.0892 81.3454 9.41312C80.9781 8.16455 80.5222 6.93758 79.9432 5.76678C78.9774 3.83344 77.6205 1.98003 75.7041 0.906433C74.492 0.230305 73.1114 -0.065636 71.7286 0.0121295C66.4199 0.316711 63.0948 5.63717 62.0771 12.8218C61.7854 14.8675 61.6796 17.0687 61.7725 19.3477C61.8524 21.3112 62.0987 23.2684 62.5373 25.1844C63.0667 27.5152 63.8575 31.7534 67.1848 31.1313C69.1488 30.7641 69.1855 28.2799 68.4877 26.8045C67.887 25.53 67.1308 24.5407 66.8218 23.1301C66.5388 21.8232 66.4913 20.4709 66.5409 19.1338C66.6209 17.0579 66.8456 14.8783 67.2431 12.891C68.0361 8.88604 69.5183 5.65877 71.8841 5.58749C73.4095 5.54212 74.3991 6.68053 74.9695 7.97662C75.3411 8.8126 75.5744 9.70906 75.7538 10.6034C75.905 11.3465 75.9115 12.1155 76.0844 12.8542C76.0973 12.9083 76.1103 12.9623 76.1254 13.0119L82.2766 13.0962C82.2766 12.5734 81.959 11.8735 81.8683 11.4588V11.4631Z" fill="url(#paint9_radial_4_1059)"/>
<path d="M81.8683 11.4631C81.7171 10.774 81.5464 10.0892 81.3454 9.41312C80.9781 8.16455 80.5222 6.93758 79.9432 5.76678C78.9774 3.83344 77.6205 1.98003 75.7041 0.906433C74.492 0.230305 73.1114 -0.065636 71.7286 0.0121295C66.4199 0.316711 63.0948 5.63717 62.0771 12.8218C61.7854 14.8675 61.6796 17.0687 61.7725 19.3477C61.8524 21.3112 62.0987 23.2684 62.5373 25.1844C63.0667 27.5152 63.8575 31.7534 67.1848 31.1313C69.1488 30.7641 69.1855 28.2799 68.4877 26.8045C67.887 25.53 67.1308 24.5407 66.8218 23.1301C66.5388 21.8232 66.4913 20.4709 66.5409 19.1338C66.6209 17.0579 66.8456 14.8783 67.2431 12.891C68.0361 8.88604 69.5183 5.65877 71.8841 5.58749C73.4095 5.54212 74.3991 6.68053 74.9695 7.97662C75.3411 8.8126 75.5744 9.70906 75.7538 10.6034C75.905 11.3465 75.9115 12.1155 76.0844 12.8542C76.0973 12.9083 76.1103 12.9623 76.1254 13.0119L82.2766 13.0962C82.2766 12.5734 81.959 11.8735 81.8683 11.4588V11.4631Z" fill="url(#paint10_radial_4_1059)"/>
<path d="M117.451 16.4984C118.065 15.6106 118.59 14.6515 119.182 13.6859C119.402 13.3252 119.625 12.9623 119.763 12.5626C119.845 12.3229 119.899 12.068 120.042 11.8563C120.42 11.2903 121.235 11.2709 121.911 11.3443C124.61 11.6338 125.385 13.1459 125.277 15.7186C125.091 20.1793 123.343 24.4673 120.159 27.5779C117.616 30.0599 114.472 31.3905 110.909 31.3517C110.237 31.3452 109.548 31.289 108.936 31.0147C107.707 30.4638 106.988 29.0727 106.988 27.7269C106.988 22.8752 112.283 21.1125 115.416 18.7126C116.252 18.071 116.892 17.3171 117.458 16.5006L117.451 16.4984Z" fill="url(#paint11_radial_4_1059)"/>
<path d="M124.914 11.988C124.763 11.299 124.592 10.6142 124.391 9.93805C124.024 8.68948 123.568 7.46252 122.989 6.29171C122.023 4.35838 120.666 2.50496 118.75 1.43137C117.538 0.755238 116.157 0.459297 114.774 0.537062C109.466 0.841644 106.141 6.1621 105.123 13.3468C104.831 15.3924 104.725 17.5936 104.818 19.8726C104.898 21.8362 105.145 23.7933 105.583 25.7093C106.113 28.0401 106.903 32.2784 110.231 31.6562C112.195 31.289 112.231 28.8048 111.534 27.3295C110.933 26.055 110.177 25.0656 109.868 23.655C109.585 22.3481 109.537 20.9959 109.587 19.6587C109.667 17.5828 109.891 15.4032 110.289 13.4159C111.082 9.41098 112.564 6.18371 114.93 6.11242C116.455 6.06706 117.445 7.20546 118.015 8.50155C118.387 9.33753 118.62 10.234 118.8 11.1283C118.951 11.8714 118.957 12.6404 119.13 13.3792C119.143 13.4332 119.156 13.4872 119.171 13.5369L125.323 13.6211C125.323 13.0984 125.005 12.3985 124.914 11.9837V11.988Z" fill="url(#paint12_radial_4_1059)"/>
<path d="M124.914 11.988C124.763 11.299 124.592 10.6142 124.391 9.93805C124.024 8.68948 123.568 7.46252 122.989 6.29171C122.023 4.35838 120.666 2.50496 118.75 1.43137C117.538 0.755238 116.157 0.459297 114.774 0.537062C109.466 0.841644 106.141 6.1621 105.123 13.3468C104.831 15.3924 104.725 17.5936 104.818 19.8726C104.898 21.8362 105.145 23.7933 105.583 25.7093C106.113 28.0401 106.903 32.2784 110.231 31.6562C112.195 31.289 112.231 28.8048 111.534 27.3295C110.933 26.055 110.177 25.0656 109.868 23.655C109.585 22.3481 109.537 20.9959 109.587 19.6587C109.667 17.5828 109.891 15.4032 110.289 13.4159C111.082 9.41098 112.564 6.18371 114.93 6.11242C116.455 6.06706 117.445 7.20546 118.015 8.50155C118.387 9.33753 118.62 10.234 118.8 11.1283C118.951 11.8714 118.957 12.6404 119.13 13.3792C119.143 13.4332 119.156 13.4872 119.171 13.5369L125.323 13.6211C125.323 13.0984 125.005 12.3985 124.914 11.9837V11.988Z" fill="url(#paint13_radial_4_1059)"/>
<path d="M124.914 11.988C124.763 11.299 124.592 10.6142 124.391 9.93805C124.024 8.68948 123.568 7.46252 122.989 6.29171C122.023 4.35838 120.666 2.50496 118.75 1.43137C117.538 0.755238 116.157 0.459297 114.774 0.537062C109.466 0.841644 106.141 6.1621 105.123 13.3468C104.831 15.3924 104.725 17.5936 104.818 19.8726C104.898 21.8362 105.145 23.7933 105.583 25.7093C106.113 28.0401 106.903 32.2784 110.231 31.6562C112.195 31.289 112.231 28.8048 111.534 27.3295C110.933 26.055 110.177 25.0656 109.868 23.655C109.585 22.3481 109.537 20.9959 109.587 19.6587C109.667 17.5828 109.891 15.4032 110.289 13.4159C111.082 9.41098 112.564 6.18371 114.93 6.11242C116.455 6.06706 117.445 7.20546 118.015 8.50155C118.387 9.33753 118.62 10.234 118.8 11.1283C118.951 11.8714 118.957 12.6404 119.13 13.3792C119.143 13.4332 119.156 13.4872 119.171 13.5369L125.323 13.6211C125.323 13.0984 125.005 12.3985 124.914 11.9837V11.988Z" fill="url(#paint14_radial_4_1059)"/>
<path d="M160.499 17.0234C161.113 16.1356 161.638 15.1764 162.23 14.2109C162.45 13.8501 162.673 13.4872 162.811 13.0876C162.893 12.8478 162.947 12.5929 163.09 12.3812C163.468 11.8152 164.283 11.7958 164.959 11.8692C167.657 12.1587 168.433 13.6708 168.325 16.2436C168.139 20.7021 166.391 24.9922 163.207 28.1028C160.664 30.5848 157.52 31.9155 153.957 31.8766C153.285 31.8701 152.596 31.814 151.984 31.5396C150.755 30.9888 150.035 29.5976 150.035 28.2519C150.035 23.4001 155.331 21.6375 158.464 19.2375C159.3 18.596 159.94 17.8421 160.506 17.0255L160.499 17.0234Z" fill="url(#paint15_radial_4_1059)"/>
<path d="M167.962 12.513C167.811 11.8239 167.64 11.1391 167.439 10.463C167.072 9.21442 166.616 7.98745 166.037 6.81665C165.071 4.88331 163.714 3.0299 161.798 1.9563C160.586 1.28017 159.205 0.98423 157.822 1.062C152.514 1.36658 149.189 6.68704 148.171 13.8717C147.879 15.9174 147.773 18.1186 147.866 20.3975C147.946 22.3611 148.192 24.3182 148.631 26.2343C149.16 28.5651 149.951 32.8033 153.279 32.1812C155.243 31.814 155.279 29.3298 154.581 27.8544C153.981 26.5799 153.225 25.5905 152.916 24.18C152.633 22.8731 152.585 21.5208 152.635 20.1837C152.715 18.1078 152.939 15.9282 153.337 13.9408C154.13 9.93591 155.612 6.70864 157.978 6.63735C159.503 6.59199 160.493 7.73039 161.063 9.02648C161.435 9.86246 161.668 10.7589 161.848 11.6532C161.999 12.3963 162.005 13.1653 162.178 13.9041C162.191 13.9581 162.204 14.0121 162.219 14.0618L168.37 14.1461C168.37 13.6233 168.053 12.9234 167.962 12.5087V12.513Z" fill="url(#paint16_radial_4_1059)"/>
<path d="M167.962 12.513C167.811 11.8239 167.64 11.1391 167.439 10.463C167.072 9.21442 166.616 7.98745 166.037 6.81665C165.071 4.88331 163.714 3.0299 161.798 1.9563C160.586 1.28017 159.205 0.98423 157.822 1.062C152.514 1.36658 149.189 6.68704 148.171 13.8717C147.879 15.9174 147.773 18.1186 147.866 20.3975C147.946 22.3611 148.192 24.3182 148.631 26.2343C149.16 28.5651 149.951 32.8033 153.279 32.1812C155.243 31.814 155.279 29.3298 154.581 27.8544C153.981 26.5799 153.225 25.5905 152.916 24.18C152.633 22.8731 152.585 21.5208 152.635 20.1837C152.715 18.1078 152.939 15.9282 153.337 13.9408C154.13 9.93591 155.612 6.70864 157.978 6.63735C159.503 6.59199 160.493 7.73039 161.063 9.02648C161.435 9.86246 161.668 10.7589 161.848 11.6532C161.999 12.3963 162.005 13.1653 162.178 13.9041C162.191 13.9581 162.204 14.0121 162.219 14.0618L168.37 14.1461C168.37 13.6233 168.053 12.9234 167.962 12.5087V12.513Z" fill="url(#paint17_radial_4_1059)"/>
<path d="M167.962 12.513C167.811 11.8239 167.64 11.1391 167.439 10.463C167.072 9.21442 166.616 7.98745 166.037 6.81665C165.071 4.88331 163.714 3.0299 161.798 1.9563C160.586 1.28017 159.205 0.98423 157.822 1.062C152.514 1.36658 149.189 6.68704 148.171 13.8717C147.879 15.9174 147.773 18.1186 147.866 20.3975C147.946 22.3611 148.192 24.3182 148.631 26.2343C149.16 28.5651 149.951 32.8033 153.279 32.1812C155.243 31.814 155.279 29.3298 154.581 27.8544C153.981 26.5799 153.225 25.5905 152.916 24.18C152.633 22.8731 152.585 21.5208 152.635 20.1837C152.715 18.1078 152.939 15.9282 153.337 13.9408C154.13 9.93591 155.612 6.70864 157.978 6.63735C159.503 6.59199 160.493 7.73039 161.063 9.02648C161.435 9.86246 161.668 10.7589 161.848 11.6532C161.999 12.3963 162.005 13.1653 162.178 13.9041C162.191 13.9581 162.204 14.0121 162.219 14.0618L168.37 14.1461C168.37 13.6233 168.053 12.9234 167.962 12.5087V12.513Z" fill="url(#paint18_radial_4_1059)"/>
<path d="M203.545 17.6628C204.159 16.775 204.684 15.8158 205.276 14.8503C205.497 14.4895 205.719 14.1266 205.857 13.727C205.939 13.4872 205.993 13.2323 206.136 13.0206C206.514 12.4546 207.329 12.4352 208.005 12.5087C210.704 12.7981 211.479 14.3102 211.371 16.883C211.185 21.3437 209.437 25.6316 206.253 28.7422C203.71 31.2242 200.566 32.5549 197.003 32.516C196.331 32.5074 195.642 32.4534 195.031 32.179C193.801 31.6282 193.082 30.237 193.082 28.8913C193.082 24.0396 198.377 22.2769 201.51 19.8769C202.346 19.2354 202.986 18.4815 203.552 17.6649L203.545 17.6628Z" fill="url(#paint19_radial_4_1059)"/>
<path d="M211.01 13.1524C210.859 12.4633 210.688 11.7785 210.488 11.1024C210.12 9.85382 209.664 8.62685 209.085 7.45605C208.119 5.52271 206.763 3.6693 204.846 2.5957C203.634 1.91958 202.253 1.62363 200.871 1.7014C195.562 2.00598 192.237 7.32644 191.219 14.5111C190.928 16.5568 190.822 18.758 190.915 21.0369C190.995 23.0005 191.241 24.9576 191.679 26.8737C192.209 29.2045 193 33.4427 196.327 32.8206C198.291 32.4534 198.328 29.9692 197.63 28.4938C197.029 27.2193 196.273 26.23 195.964 24.8194C195.681 23.5125 195.633 22.1602 195.683 20.8231C195.763 18.7472 195.988 16.5676 196.385 14.5802C197.178 10.5753 198.66 7.34804 201.026 7.27676C202.552 7.23139 203.541 8.3698 204.112 9.66589C204.483 10.5019 204.717 11.3983 204.896 12.2926C205.047 13.0357 205.054 13.8047 205.226 14.5435C205.239 14.5975 205.252 14.6515 205.267 14.7012L211.419 14.7855C211.419 14.2627 211.101 13.5628 211.01 13.1481V13.1524Z" fill="url(#paint20_radial_4_1059)"/>
<path d="M211.01 13.1524C210.859 12.4633 210.688 11.7785 210.488 11.1024C210.12 9.85382 209.664 8.62685 209.085 7.45605C208.119 5.52271 206.763 3.6693 204.846 2.5957C203.634 1.91958 202.253 1.62363 200.871 1.7014C195.562 2.00598 192.237 7.32644 191.219 14.5111C190.928 16.5568 190.822 18.758 190.915 21.0369C190.995 23.0005 191.241 24.9576 191.679 26.8737C192.209 29.2045 193 33.4427 196.327 32.8206C198.291 32.4534 198.328 29.9692 197.63 28.4938C197.029 27.2193 196.273 26.23 195.964 24.8194C195.681 23.5125 195.633 22.1602 195.683 20.8231C195.763 18.7472 195.988 16.5676 196.385 14.5802C197.178 10.5753 198.66 7.34804 201.026 7.27676C202.552 7.23139 203.541 8.3698 204.112 9.66589C204.483 10.5019 204.717 11.3983 204.896 12.2926C205.047 13.0357 205.054 13.8047 205.226 14.5435C205.239 14.5975 205.252 14.6515 205.267 14.7012L211.419 14.7855C211.419 14.2627 211.101 13.5628 211.01 13.1481V13.1524Z" fill="url(#paint21_radial_4_1059)"/>
<path d="M211.01 13.1524C210.859 12.4633 210.688 11.7785 210.488 11.1024C210.12 9.85382 209.664 8.62685 209.085 7.45605C208.119 5.52271 206.763 3.6693 204.846 2.5957C203.634 1.91958 202.253 1.62363 200.871 1.7014C195.562 2.00598 192.237 7.32644 191.219 14.5111C190.928 16.5568 190.822 18.758 190.915 21.0369C190.995 23.0005 191.241 24.9576 191.679 26.8737C192.209 29.2045 193 33.4427 196.327 32.8206C198.291 32.4534 198.328 29.9692 197.63 28.4938C197.029 27.2193 196.273 26.23 195.964 24.8194C195.681 23.5125 195.633 22.1602 195.683 20.8231C195.763 18.7472 195.988 16.5676 196.385 14.5802C197.178 10.5753 198.66 7.34804 201.026 7.27676C202.552 7.23139 203.541 8.3698 204.112 9.66589C204.483 10.5019 204.717 11.3983 204.896 12.2926C205.047 13.0357 205.054 13.8047 205.226 14.5435C205.239 14.5975 205.252 14.6515 205.267 14.7012L211.419 14.7855C211.419 14.2627 211.101 13.5628 211.01 13.1481V13.1524Z" fill="url(#paint22_radial_4_1059)"/>
<path d="M246.593 18.3432C247.207 17.4554 247.732 16.4963 248.324 15.5307C248.544 15.1699 248.767 14.807 248.905 14.4074C248.987 14.1676 249.041 13.9127 249.184 13.701C249.562 13.1351 250.377 13.1156 251.053 13.1891C253.751 13.4785 254.527 14.9906 254.419 17.5634C254.233 22.0241 252.485 26.312 249.301 29.4226C246.758 31.9046 243.614 33.2353 240.051 33.1964C239.379 33.1899 238.69 33.1338 238.078 32.8594C236.849 32.3086 236.13 30.9175 236.13 29.5717C236.13 24.72 241.425 22.9573 244.558 20.5574C245.394 19.9158 246.034 19.1619 246.6 18.3454L246.593 18.3432Z" fill="url(#paint23_radial_4_1059)"/>
<path d="M254.058 13.8328C253.907 13.1437 253.736 12.4589 253.535 11.7828C253.168 10.5342 252.712 9.30727 252.133 8.13647C251.167 6.20313 249.81 4.34972 247.894 3.27612C246.682 2.59999 245.301 2.30405 243.919 2.38182C238.61 2.6864 235.285 8.00686 234.267 15.1915C233.975 17.2372 233.87 19.4384 233.962 21.7174C234.042 23.6809 234.289 25.638 234.727 27.5541C235.257 29.8849 236.047 34.1231 239.375 33.501C241.339 33.1338 241.375 30.6496 240.678 29.1742C240.077 27.8997 239.321 26.9104 239.012 25.4998C238.729 24.1929 238.681 22.8406 238.731 21.5035C238.811 19.4276 239.036 17.248 239.433 15.2607C240.226 11.2557 241.708 8.02846 244.074 7.95718C245.599 7.91181 246.589 9.05022 247.159 10.3463C247.531 11.1823 247.764 12.0788 247.944 12.9731C248.095 13.7161 248.101 14.4852 248.274 15.2239C248.287 15.2779 248.3 15.3319 248.315 15.3816L254.467 15.4659C254.467 14.9431 254.149 14.2432 254.058 13.8285V13.8328Z" fill="url(#paint24_radial_4_1059)"/>
<path d="M254.058 13.8328C253.907 13.1437 253.736 12.4589 253.535 11.7828C253.168 10.5342 252.712 9.30727 252.133 8.13647C251.167 6.20313 249.81 4.34972 247.894 3.27612C246.682 2.59999 245.301 2.30405 243.919 2.38182C238.61 2.6864 235.285 8.00686 234.267 15.1915C233.975 17.2372 233.87 19.4384 233.962 21.7174C234.042 23.6809 234.289 25.638 234.727 27.5541C235.257 29.8849 236.047 34.1231 239.375 33.501C241.339 33.1338 241.375 30.6496 240.678 29.1742C240.077 27.8997 239.321 26.9104 239.012 25.4998C238.729 24.1929 238.681 22.8406 238.731 21.5035C238.811 19.4276 239.036 17.248 239.433 15.2607C240.226 11.2557 241.708 8.02846 244.074 7.95718C245.599 7.91181 246.589 9.05022 247.159 10.3463C247.531 11.1823 247.764 12.0788 247.944 12.9731C248.095 13.7161 248.101 14.4852 248.274 15.2239C248.287 15.2779 248.3 15.3319 248.315 15.3816L254.467 15.4659C254.467 14.9431 254.149 14.2432 254.058 13.8285V13.8328Z" fill="url(#paint25_radial_4_1059)"/>
<path d="M254.058 13.8328C253.907 13.1437 253.736 12.4589 253.535 11.7828C253.168 10.5342 252.712 9.30727 252.133 8.13647C251.167 6.20313 249.81 4.34972 247.894 3.27612C246.682 2.59999 245.301 2.30405 243.919 2.38182C238.61 2.6864 235.285 8.00686 234.267 15.1915C233.975 17.2372 233.87 19.4384 233.962 21.7174C234.042 23.6809 234.289 25.638 234.727 27.5541C235.257 29.8849 236.047 34.1231 239.375 33.501C241.339 33.1338 241.375 30.6496 240.678 29.1742C240.077 27.8997 239.321 26.9104 239.012 25.4998C238.729 24.1929 238.681 22.8406 238.731 21.5035C238.811 19.4276 239.036 17.248 239.433 15.2607C240.226 11.2557 241.708 8.02846 244.074 7.95718C245.599 7.91181 246.589 9.05022 247.159 10.3463C247.531 11.1823 247.764 12.0788 247.944 12.9731C248.095 13.7161 248.101 14.4852 248.274 15.2239C248.287 15.2779 248.3 15.3319 248.315 15.3816L254.467 15.4659C254.467 14.9431 254.149 14.2432 254.058 13.8285V13.8328Z" fill="url(#paint26_radial_4_1059)"/>
<path d="M90.5866 69.5238C84.7811 69.338 78.9734 69.1501 73.1678 68.9643C70.3958 68.8757 68.5506 66.8192 69.0022 64.3739C69.9507 59.2544 70.7587 54.1456 71.4264 49.0498C71.7461 46.6153 74.2243 44.7187 77.0051 44.8073C82.8279 44.993 88.6507 45.1788 94.4714 45.3624C97.2521 45.451 99.2766 47.4923 98.9482 49.9268C98.2633 55.0248 97.4379 60.1357 96.4743 65.2553C96.0141 67.7006 93.3587 69.6123 90.5866 69.5216V69.5238ZM175.47 103.183C177.046 98.0594 178.478 92.9463 179.772 87.8419C180.39 85.4052 178.61 83.3617 175.84 83.2731C170.041 83.0874 164.24 82.9016 158.438 82.7158C155.668 82.6273 152.963 84.526 152.354 86.9627C151.077 92.065 149.66 97.1781 148.102 102.3C147.359 104.745 148.958 106.804 151.721 106.892C157.505 107.078 163.289 107.266 169.073 107.452C171.834 107.54 174.719 105.629 175.47 103.181V103.183Z" fill="url(#paint27_linear_4_1059)"/>
<defs>
<linearGradient id="paint0_linear_4_1059" x1="-33.8541" y1="67.1359" x2="312.429" y2="133.805" gradientUnits="userSpaceOnUse">
<stop stop-color="#83CF91"/>
<stop offset="0.18" stop-color="#006F00"/>
<stop offset="0.26" stop-color="#006F00"/>
<stop offset="0.83" stop-color="#006F00"/>
<stop offset="0.85" stop-color="#007103"/>
<stop offset="0.87" stop-color="#00780C"/>
<stop offset="0.88" stop-color="#00841D"/>
<stop offset="0.9" stop-color="#009C3F"/>
<stop offset="1" stop-color="#7EB668"/>
</linearGradient>
<linearGradient id="paint1_linear_4_1059" x1="10.2957" y1="71.2362" x2="329.829" y2="135.012" gradientUnits="userSpaceOnUse">
<stop stop-color="#83CF91"/>
<stop offset="0.18" stop-color="#3DAE55"/>
<stop offset="0.2" stop-color="#37A74C"/>
<stop offset="0.28" stop-color="#239331"/>
<stop offset="0.37" stop-color="#13831B"/>
<stop offset="0.46" stop-color="#08770B"/>
<stop offset="0.57" stop-color="#027102"/>
<stop offset="0.74" stop-color="#006F00"/>
<stop offset="0.78" stop-color="#007103"/>
<stop offset="0.82" stop-color="#00780C"/>
<stop offset="0.86" stop-color="#00841D"/>
<stop offset="0.89" stop-color="#009434"/>
<stop offset="0.9" stop-color="#009C3F"/>
<stop offset="1" stop-color="#7EB668"/>
</linearGradient>
<linearGradient id="paint2_linear_4_1059" x1="9.5767" y1="70.0442" x2="331.444" y2="131.896" gradientUnits="userSpaceOnUse">
<stop stop-color="#A6BBBE"/>
<stop offset="0.06" stop-color="#ECFCFF"/>
<stop offset="0.09" stop-color="#DEEEF1"/>
<stop offset="0.17" stop-color="#BCCCCF"/>
<stop offset="0.25" stop-color="#A1B0B3"/>
<stop offset="0.35" stop-color="#8B9A9D"/>
<stop offset="0.45" stop-color="#7C8A8D"/>
<stop offset="0.57" stop-color="#738184"/>
<stop offset="0.74" stop-color="#717F82"/>
<stop offset="0.78" stop-color="#738285"/>
<stop offset="0.81" stop-color="#7C8B8E"/>
<stop offset="0.84" stop-color="#8A9C9E"/>
<stop offset="0.87" stop-color="#9EB3B5"/>
<stop offset="0.9" stop-color="#BED8D9"/>
<stop offset="1" stop-color="#A6BBBE"/>
</linearGradient>
<linearGradient id="paint3_linear_4_1059" x1="170.993" y1="-8.44753" x2="156.598" y2="208.018" gradientUnits="userSpaceOnUse">
<stop stop-color="#F3F8FB"/>
<stop offset="0.03" stop-color="#DCEAED"/>
<stop offset="0.06" stop-color="#C4DFE0"/>
<stop offset="0.84" stop-color="#C1DADB"/>
<stop offset="0.9" stop-color="#E7F0F1"/>
<stop offset="0.95" stop-color="white"/>
<stop offset="1" stop-color="#A6BBBE"/>
</linearGradient>
<radialGradient id="paint4_radial_4_1059" cx="0" cy="0" r="1" gradientUnits="userSpaceOnUse" gradientTransform="translate(-144.478 -3.24639) scale(474.821 517.054)">
<stop offset="0.41" stop-color="#F3F8FB"/>
<stop offset="0.47" stop-color="#DCEAED"/>
<stop offset="0.97" stop-color="#ECFCFF"/>
<stop offset="0.98" stop-color="#BED8D9"/>
<stop offset="1" stop-color="#A6BBBE"/>
</radialGradient>
<linearGradient id="paint5_linear_4_1059" x1="167.767" y1="-0.00678323" x2="159.922" y2="206.992" gradientUnits="userSpaceOnUse">
<stop stop-color="#F3F8FB"/>
<stop offset="0.03" stop-color="#DCEAED"/>
<stop offset="0.06" stop-color="#C4DFE0"/>
<stop offset="0.5" stop-color="#C1DADB"/>
<stop offset="0.75" stop-color="#E7F0F1"/>
<stop offset="0.94" stop-color="white"/>
<stop offset="1" stop-color="#A6BBBE"/>
</linearGradient>
<linearGradient id="paint6_linear_4_1059" x1="154.739" y1="-8.78935" x2="147.069" y2="220.902" gradientUnits="userSpaceOnUse">
<stop offset="0.05" stop-color="#BED8D9"/>
<stop offset="0.09" stop-color="#B0C7CA"/>
<stop offset="0.13" stop-color="#A8BEC0"/>
<stop offset="0.18" stop-color="#A6BBBE"/>
<stop offset="0.21" stop-color="#A2B7BA"/>
<stop offset="0.25" stop-color="#99ACAF"/>
<stop offset="0.28" stop-color="#88999C"/>
<stop offset="0.3" stop-color="#728083"/>
<stop offset="0.31" stop-color="#717F82"/>
<stop offset="0.39" stop-color="#BED8D9"/>
<stop offset="0.42" stop-color="#B2CACC"/>
<stop offset="0.46" stop-color="#A9BEC1"/>
<stop offset="0.51" stop-color="#A6BBBE"/>
<stop offset="0.55" stop-color="#A3B8BB"/>
<stop offset="0.58" stop-color="#9CB0B3"/>
<stop offset="0.6" stop-color="#8FA1A4"/>
<stop offset="0.62" stop-color="#7D8D90"/>
<stop offset="0.63" stop-color="#717F82"/>
<stop offset="0.72" stop-color="#BED8D9"/>
<stop offset="0.74" stop-color="#B6CFD0"/>
<stop offset="0.8" stop-color="#AAC0C2"/>
<stop offset="0.84" stop-color="#A6BBBE"/>
<stop offset="0.89" stop-color="#A4B8BB"/>
<stop offset="0.91" stop-color="#9DB1B4"/>
<stop offset="0.93" stop-color="#91A3A6"/>
<stop offset="0.94" stop-color="#819194"/>
<stop offset="0.95" stop-color="#717F82"/>
</linearGradient>
<radialGradient id="paint7_radial_4_1059" cx="0" cy="0" r="1" gradientUnits="userSpaceOnUse" gradientTransform="translate(-93.8592 -10.5702) rotate(5.18048) scale(433.609 261.363)">
<stop offset="0.74" stop-color="#A6BBBE"/>
<stop offset="0.85" stop-color="#A6BBBE"/>
<stop offset="0.98" stop-color="#A6BBBE"/>
</radialGradient>
<radialGradient id="paint8_radial_4_1059" cx="0" cy="0" r="1" gradientUnits="userSpaceOnUse" gradientTransform="translate(645.92 120.304) scale(708.946 303.547)">
<stop offset="0.88" stop-color="#6945A9"/>
<stop offset="0.94" stop-color="#CF8AFF"/>
<stop offset="0.97" stop-color="#E8C7FC"/>
</radialGradient>
<radialGradient id="paint9_radial_4_1059" cx="0" cy="0" r="1" gradientUnits="userSpaceOnUse" gradientTransform="translate(258.773 90.2343) scale(221.697 94.9231)">
<stop stop-color="#6125E5"/>
<stop offset="0.92" stop-color="#CF8AFF"/>
</radialGradient>
<radialGradient id="paint10_radial_4_1059" cx="0" cy="0" r="1" gradientUnits="userSpaceOnUse" gradientTransform="translate(162.618 -1.30987) scale(221.697 94.9231)">
<stop stop-color="#A389F0"/>
<stop offset="1" stop-color="#6945A9"/>
</radialGradient>
<radialGradient id="paint11_radial_4_1059" cx="0" cy="0" r="1" gradientUnits="userSpaceOnUse" gradientTransform="translate(-93.7796 -10.6821) rotate(5.18048) scale(433.609 261.363)">
<stop offset="0.74" stop-color="#A6BBBE"/>
<stop offset="0.85" stop-color="#A6BBBE"/>
<stop offset="0.98" stop-color="#A6BBBE"/>
</radialGradient>
<radialGradient id="paint12_radial_4_1059" cx="0" cy="0" r="1" gradientUnits="userSpaceOnUse" gradientTransform="translate(645.955 120.304) scale(708.946 303.547)">
<stop offset="0.88" stop-color="#6945A9"/>
<stop offset="0.94" stop-color="#CF8AFF"/>
<stop offset="0.97" stop-color="#E8C7FC"/>
</radialGradient>
<radialGradient id="paint13_radial_4_1059" cx="0" cy="0" r="1" gradientUnits="userSpaceOnUse" gradientTransform="translate(258.807 90.2194) scale(221.697 94.9231)">
<stop stop-color="#6125E5"/>
<stop offset="0.92" stop-color="#CF8AFF"/>
</radialGradient>
<radialGradient id="paint14_radial_4_1059" cx="0" cy="0" r="1" gradientUnits="userSpaceOnUse" gradientTransform="translate(162.652 -1.30987) scale(221.697 94.9231)">
<stop stop-color="#A389F0"/>
<stop offset="1" stop-color="#6945A9"/>
</radialGradient>
<radialGradient id="paint15_radial_4_1059" cx="0" cy="0" r="1" gradientUnits="userSpaceOnUse" gradientTransform="translate(-93.6939 -10.8174) rotate(5.18048) scale(433.609 261.363)">
<stop offset="0.74" stop-color="#A6BBBE"/>
<stop offset="0.85" stop-color="#A6BBBE"/>
<stop offset="0.98" stop-color="#A6BBBE"/>
</radialGradient>
<radialGradient id="paint16_radial_4_1059" cx="0" cy="0" r="1" gradientUnits="userSpaceOnUse" gradientTransform="translate(645.955 120.304) scale(708.946 303.547)">
<stop offset="0.88" stop-color="#6945A9"/>
<stop offset="0.94" stop-color="#CF8AFF"/>
<stop offset="0.97" stop-color="#E8C7FC"/>
</radialGradient>
<radialGradient id="paint17_radial_4_1059" cx="0" cy="0" r="1" gradientUnits="userSpaceOnUse" gradientTransform="translate(258.807 90.2194) scale(221.697 94.9231)">
<stop stop-color="#6125E5"/>
<stop offset="0.92" stop-color="#CF8AFF"/>
</radialGradient>
<radialGradient id="paint18_radial_4_1059" cx="0" cy="0" r="1" gradientUnits="userSpaceOnUse" gradientTransform="translate(162.652 -1.30987) scale(221.697 94.9231)">
<stop stop-color="#A389F0"/>
<stop offset="1" stop-color="#6945A9"/>
</radialGradient>
<radialGradient id="paint19_radial_4_1059" cx="0" cy="0" r="1" gradientUnits="userSpaceOnUse" gradientTransform="translate(-93.567 -10.9253) rotate(5.18048) scale(433.609 261.363)">
<stop offset="0.74" stop-color="#A6BBBE"/>
<stop offset="0.85" stop-color="#A6BBBE"/>
<stop offset="0.98" stop-color="#A6BBBE"/>
</radialGradient>
<radialGradient id="paint20_radial_4_1059" cx="0" cy="0" r="1" gradientUnits="userSpaceOnUse" gradientTransform="translate(645.955 120.304) scale(708.946 303.547)">
<stop offset="0.88" stop-color="#6945A9"/>
<stop offset="0.94" stop-color="#CF8AFF"/>
<stop offset="0.97" stop-color="#E8C7FC"/>
</radialGradient>
<radialGradient id="paint21_radial_4_1059" cx="0" cy="0" r="1" gradientUnits="userSpaceOnUse" gradientTransform="translate(258.807 90.2343) scale(221.697 94.9231)">
<stop stop-color="#6125E5"/>
<stop offset="0.92" stop-color="#CF8AFF"/>
</radialGradient>
<radialGradient id="paint22_radial_4_1059" cx="0" cy="0" r="1" gradientUnits="userSpaceOnUse" gradientTransform="translate(162.618 -1.30987) scale(221.697 94.9231)">
<stop stop-color="#A389F0"/>
<stop offset="1" stop-color="#6945A9"/>
</radialGradient>
<radialGradient id="paint23_radial_4_1059" cx="0" cy="0" r="1" gradientUnits="userSpaceOnUse" gradientTransform="translate(-93.5085 -11.0414) rotate(5.18048) scale(433.609 261.363)">
<stop offset="0.74" stop-color="#A6BBBE"/>
<stop offset="0.85" stop-color="#A6BBBE"/>
<stop offset="0.98" stop-color="#A6BBBE"/>
</radialGradient>
<radialGradient id="paint24_radial_4_1059" cx="0" cy="0" r="1" gradientUnits="userSpaceOnUse" gradientTransform="translate(645.92 120.304) scale(708.946 303.547)">
<stop offset="0.88" stop-color="#6945A9"/>
<stop offset="0.94" stop-color="#CF8AFF"/>
<stop offset="0.97" stop-color="#E8C7FC"/>
</radialGradient>
<radialGradient id="paint25_radial_4_1059" cx="0" cy="0" r="1" gradientUnits="userSpaceOnUse" gradientTransform="translate(258.773 90.2194) scale(221.697 94.9231)">
<stop stop-color="#6125E5"/>
<stop offset="0.92" stop-color="#CF8AFF"/>
</radialGradient>
<radialGradient id="paint26_radial_4_1059" cx="0" cy="0" r="1" gradientUnits="userSpaceOnUse" gradientTransform="translate(162.618 -1.30987) scale(221.697 94.9231)">
<stop stop-color="#A389F0"/>
<stop offset="1" stop-color="#6945A9"/>
</radialGradient>
<linearGradient id="paint27_linear_4_1059" x1="126.248" y1="12.1371" x2="123.555" y2="106.005" gradientUnits="userSpaceOnUse">
<stop offset="0.36" stop-color="#F29E50"/>
<stop offset="0.39" stop-color="#F68C47"/>
<stop offset="0.44" stop-color="#F97D41"/>
<stop offset="0.48" stop-color="#FB793F"/>
<stop offset="0.53" stop-color="#F9753C"/>
<stop offset="0.57" stop-color="#F66A35"/>
<stop offset="0.61" stop-color="#F0592A"/>
<stop offset="0.62" stop-color="#F05C2B"/>
<stop offset="0.7" stop-color="#F18944"/>
<stop offset="0.74" stop-color="#F29A4D"/>
<stop offset="0.78" stop-color="#F78845"/>
<stop offset="0.81" stop-color="#FA7C40"/>
<stop offset="0.85" stop-color="#FB793F"/>
<stop offset="0.9" stop-color="#F9733B"/>
<stop offset="0.97" stop-color="#F46432"/>
<stop offset="1" stop-color="#F15B2C"/>
</linearGradient>
</defs>
</svg>
