<svg width="24" height="15" viewBox="0 0 24 15" fill="none" xmlns="http://www.w3.org/2000/svg">
<path d="M14.3585 7.06981H7.76578L7.77489 8.97906H12.22C11.6923 11.3024 10.0725 12.7285 7.89317 12.7285C5.0359 12.7285 2.72005 10.3868 2.72005 7.49767C2.72005 4.6085 5.0359 2.2668 7.89317 2.2668C9.25357 2.2668 10.4866 2.79587 11.4102 3.66078L12.8707 2.39102C11.5922 1.11666 9.83595 0.329956 7.89773 0.329956C3.98035 0.329956 0.809143 3.54116 0.809143 7.49767C0.809143 11.4542 3.9849 14.6654 7.89773 14.6654C11.8106 14.6654 14.3721 11.767 14.3721 7.80591L14.363 7.06521L14.3585 7.06981Z" fill="white"/>
<path d="M23.8311 7.148H21.1104V4.39685H19.3723V7.148H16.6516V8.90542H19.3723V11.6566H21.1104V8.90542H23.8311V7.148Z" fill="white"/>
</svg>
