<svg width="183" height="50" viewBox="0 0 183 50" fill="none" xmlns="http://www.w3.org/2000/svg">
<path d="M21.6386 12.536L13.8626 27.576V35H8.39062V27.576L0.614625 12.536H6.82263L11.1746 21.944L15.4946 12.536H21.6386ZM22.7554 26.04C22.7554 24.2053 23.0967 22.5947 23.7794 21.208C24.4834 19.8213 25.4327 18.7547 26.6274 18.008C27.822 17.2613 29.1554 16.888 30.6274 16.888C31.886 16.888 32.9847 17.144 33.9234 17.656C34.8834 18.168 35.6194 18.84 36.1314 19.672V17.144H41.6034V35H36.1314V32.472C35.598 33.304 34.8514 33.976 33.8914 34.488C32.9527 35 31.854 35.256 30.5954 35.256C29.1447 35.256 27.822 34.8827 26.6274 34.136C25.4327 33.368 24.4834 32.2907 23.7794 30.904C23.0967 29.496 22.7554 27.8747 22.7554 26.04ZM36.1314 26.072C36.1314 24.7067 35.7474 23.6293 34.9794 22.84C34.2327 22.0507 33.3154 21.656 32.2274 21.656C31.1394 21.656 30.2114 22.0507 29.4434 22.84C28.6967 23.608 28.3234 24.6747 28.3234 26.04C28.3234 27.4053 28.6967 28.4933 29.4434 29.304C30.2114 30.0933 31.1394 30.488 32.2274 30.488C33.3154 30.488 34.2327 30.0933 34.9794 29.304C35.7474 28.5147 36.1314 27.4373 36.1314 26.072ZM55.5141 30.36V35H52.7301C50.7461 35 49.1995 34.52 48.0901 33.56C46.9808 32.5787 46.4261 30.9893 46.4261 28.792V21.688H44.2501V17.144H46.4261V12.792H51.8981V17.144H55.4821V21.688H51.8981V28.856C51.8981 29.3893 52.0261 29.7733 52.2821 30.008C52.5381 30.2427 52.9648 30.36 53.5621 30.36H55.5141ZM64.0341 20.12C64.6741 19.1387 65.4741 18.3707 66.4341 17.816C67.3941 17.24 68.4608 16.952 69.6341 16.952V22.744H68.1301C66.7648 22.744 65.7408 23.0427 65.0581 23.64C64.3755 24.216 64.0341 25.24 64.0341 26.712V35H58.5621V17.144H64.0341V20.12ZM75.0016 15.288C74.0416 15.288 73.2523 15.0107 72.6336 14.456C72.0363 13.88 71.7376 13.176 71.7376 12.344C71.7376 11.4907 72.0363 10.7867 72.6336 10.232C73.2523 9.656 74.0416 9.368 75.0016 9.368C75.9403 9.368 76.7083 9.656 77.3056 10.232C77.9243 10.7867 78.2336 11.4907 78.2336 12.344C78.2336 13.176 77.9243 13.88 77.3056 14.456C76.7083 15.0107 75.9403 15.288 75.0016 15.288ZM77.7216 17.144V35H72.2496V17.144H77.7216ZM98.8071 19.768C98.8071 21.0693 98.5085 22.264 97.9111 23.352C97.3138 24.4187 96.3965 25.2827 95.1591 25.944C93.9218 26.6053 92.3858 26.936 90.5511 26.936H87.1591V35H81.6871V12.536H90.5511C92.3431 12.536 93.8578 12.8453 95.0951 13.464C96.3325 14.0827 97.2605 14.936 97.8791 16.024C98.4978 17.112 98.8071 18.36 98.8071 19.768ZM90.1351 22.584C91.1805 22.584 91.9591 22.3387 92.4711 21.848C92.9831 21.3573 93.2391 20.664 93.2391 19.768C93.2391 18.872 92.9831 18.1787 92.4711 17.688C91.9591 17.1973 91.1805 16.952 90.1351 16.952H87.1591V22.584H90.1351ZM100.568 26.04C100.568 24.2053 100.909 22.5947 101.592 21.208C102.296 19.8213 103.245 18.7547 104.44 18.008C105.635 17.2613 106.968 16.888 108.44 16.888C109.699 16.888 110.797 17.144 111.736 17.656C112.696 18.168 113.432 18.84 113.944 19.672V17.144H119.416V35H113.944V32.472C113.411 33.304 112.664 33.976 111.704 34.488C110.765 35 109.667 35.256 108.408 35.256C106.957 35.256 105.635 34.8827 104.44 34.136C103.245 33.368 102.296 32.2907 101.592 30.904C100.909 29.496 100.568 27.8747 100.568 26.04ZM113.944 26.072C113.944 24.7067 113.56 23.6293 112.792 22.84C112.045 22.0507 111.128 21.656 110.04 21.656C108.952 21.656 108.024 22.0507 107.256 22.84C106.509 23.608 106.136 24.6747 106.136 26.04C106.136 27.4053 106.509 28.4933 107.256 29.304C108.024 30.0933 108.952 30.488 110.04 30.488C111.128 30.488 112.045 30.0933 112.792 29.304C113.56 28.5147 113.944 27.4373 113.944 26.072ZM141.615 17.144L130.415 43.48H124.527L128.623 34.392L121.359 17.144H127.471L131.599 28.312L135.695 17.144H141.615Z" fill="#E8D900"/>
<path d="M150.166 21.6008L144 50.0003L159.836 26.1193C160.397 25.273 160.625 24.2443 160.473 23.2369L158.048 7.11377H153.465L151.396 16.5816L156.44 16.5614C156.689 16.5603 156.92 16.689 157.052 16.9015C157.944 18.3357 157.615 20.2197 156.293 21.259C156.022 21.4715 155.689 21.5873 155.347 21.5885L150.167 21.6019L150.166 21.6008Z" fill="white"/>
<path d="M172.301 7.11377H163.354L165.605 18.4236L172.301 7.11377Z" fill="white"/>
<path d="M162.595 31.2045L177.241 8.59161C177.241 8.59161 186.738 14.0795 179.032 24.6487C172.124 34.1221 165.914 31.9149 162.596 31.2051L162.595 31.2045Z" fill="white"/>
<path d="M170.759 6.55604L159.899 6.77867L169.462 3.14112C170.09 2.90227 170.759 3.37158 170.759 4.04953V6.55604Z" fill="white"/>
<path d="M154.43 6.90231C154.43 6.90231 162.844 3.21665 163.921 3.01864C164.997 2.82062 165.502 4.25539 164.186 4.71296C162.869 5.17052 157.659 6.90175 157.659 6.90175H154.43L154.43 6.90231Z" fill="white"/>
<path d="M155.292 19.6637C155.611 19.6637 155.869 19.4025 155.869 19.0802C155.869 18.758 155.611 18.4968 155.292 18.4968C154.974 18.4968 154.715 18.758 154.715 19.0802C154.715 19.4025 154.974 19.6637 155.292 19.6637Z" fill="white"/>
</svg>
